<svg width="24" height="24" viewBox="0 0 24 24" fill="none" xmlns="http://www.w3.org/2000/svg">
<g clip-path="url(#clip0_1032_3919)">
<path d="M22.8574 14.6821L21.3345 13.7138C21.4362 13.1581 21.492 12.5858 21.492 12.0008C21.492 11.4158 21.4365 10.8443 21.3349 10.2886L22.8574 9.32034C23.1994 9.10246 23.3468 8.60221 23.1829 8.20883L22.5893 6.77596C22.4262 6.38183 21.9683 6.13171 21.5727 6.21983L19.812 6.61133C19.1572 5.66459 18.3367 4.84402 17.3899 4.18921L17.7818 2.42821C17.8695 2.03258 17.6198 1.57471 17.226 1.41196L15.7928 0.81796C15.3987 0.65371 14.898 0.80071 14.6805 1.14346L13.7123 2.66596C13.1475 2.56183 12.5744 2.50911 12 2.50846C11.4147 2.50846 10.8428 2.56433 10.2874 2.66558L9.31916 1.14308C9.10128 0.800335 8.60141 0.653335 8.20728 0.816835L6.77478 1.41083C6.38066 1.57358 6.13016 2.03183 6.21866 2.42783L6.61016 4.18846C5.66345 4.84304 4.84298 5.6635 4.18841 6.61021L2.42741 6.21871C2.03178 6.13021 1.57391 6.38071 1.41078 6.77408L0.817157 8.20696C0.653657 8.60109 0.800657 9.10171 1.14266 9.31921L2.66553 10.2875C2.56173 10.8524 2.50914 11.4256 2.50841 12.0001C2.50841 12.5855 2.56428 13.157 2.66553 13.7123L1.14266 14.6806C0.800282 14.8985 0.653657 15.3987 0.817157 15.7932L1.41078 17.2261C1.57428 17.6195 2.03178 17.8703 2.42741 17.7815L4.18841 17.3896C4.84318 18.3362 5.66361 19.1568 6.61016 19.8117L6.21828 21.5727C6.12978 21.9683 6.38066 22.4262 6.77403 22.589L8.20691 23.183C8.60141 23.3457 9.10128 23.1995 9.31916 22.8571L10.2874 21.3346C10.8432 21.4362 11.415 21.4917 12 21.4917C12.585 21.4917 13.1562 21.4362 13.7123 21.3346L14.6805 22.8571C14.898 23.1995 15.3987 23.3457 15.7924 23.183L17.2249 22.5897C17.6198 22.4262 17.8695 21.9683 17.781 21.5727L17.3895 19.8117C18.3364 19.157 19.157 18.3364 19.8117 17.3896L21.5723 17.7815C21.9679 17.87 22.4258 17.6191 22.5889 17.2261L23.1825 15.7932C23.3468 15.3995 23.1994 14.8992 22.8574 14.6821ZM9.57866 18.9691L8.80391 18.6485C7.29576 17.921 6.07887 16.7036 5.35203 15.1951L5.03253 14.4241C4.7592 13.6453 4.61887 12.8262 4.61741 12.0008C4.61741 11.1485 4.76928 10.3336 5.03478 9.57158L5.35053 8.80921C6.07739 7.29982 7.2947 6.08159 8.80353 5.35358L9.57903 5.03221C10.357 4.75931 11.1753 4.61923 11.9997 4.61783C12.8472 4.61783 13.6583 4.76783 14.4165 5.03109L15.1995 5.35546C16.7036 6.08181 17.9178 7.29559 18.6447 8.79946L18.9705 9.58696C19.233 10.3445 19.3827 11.1541 19.3827 12.0008C19.3827 12.8476 19.2334 13.6576 18.9705 14.4151L18.6447 15.2026C17.9179 16.7065 16.7037 17.9203 15.1995 18.6466L14.4165 18.971C13.6397 19.2429 12.8227 19.3825 11.9997 19.3842C11.1751 19.3819 10.3568 19.2416 9.57866 18.9691Z" fill="#0D5A6B"/>
<path d="M17.625 12C17.625 8.8935 15.1069 6.375 12 6.375C8.89388 6.375 6.375 8.8935 6.375 12C6.375 15.1065 8.89388 17.625 12 17.625C15.1069 17.625 17.625 15.1065 17.625 12ZM9.1875 12C9.1875 11.2541 9.48382 10.5387 10.0113 10.0113C10.5387 9.48382 11.2541 9.1875 12 9.1875C12.7459 9.1875 13.4613 9.48382 13.9887 10.0113C14.5162 10.5387 14.8125 11.2541 14.8125 12C14.8125 12.7459 14.5162 13.4613 13.9887 13.9887C13.4613 14.5162 12.7459 14.8125 12 14.8125C11.2541 14.8125 10.5387 14.5162 10.0113 13.9887C9.48382 13.4613 9.1875 12.7459 9.1875 12Z" fill="#C3E2E9"/>
</g>
<defs>
<clipPath id="clip0_1032_3919">
<rect width="24" height="24" fill="white"/>
</clipPath>
</defs>
</svg>
