<svg width="24" height="24" viewBox="0 0 24 24" fill="none" xmlns="http://www.w3.org/2000/svg">
<path d="M16.5 12C16.5 12.1989 16.421 12.3897 16.2803 12.5303C16.1397 12.671 15.9489 12.75 15.75 12.75L9 12.75L9 17.625C9 19.125 10.5839 20.25 12 20.25L19.125 20.25C19.821 20.2493 20.4882 19.9725 20.9803 19.4803C21.4725 18.9882 21.7493 18.321 21.75 17.625L21.75 6.375C21.7493 5.67904 21.4725 5.01179 20.9803 4.51967C20.4882 4.02755 19.821 3.75074 19.125 3.75L11.625 3.75C10.929 3.75074 10.2618 4.02755 9.76967 4.51967C9.27754 5.01179 9.00074 5.67904 9 6.375L9 11.25L15.75 11.25C15.9489 11.25 16.1397 11.329 16.2803 11.4697C16.421 11.6103 16.5 11.8011 16.5 12ZM2.46984 12.5302L6.21984 16.2802C6.36164 16.4149 6.55045 16.4889 6.74602 16.4864C6.9416 16.4839 7.12845 16.4051 7.26675 16.2668C7.40505 16.1285 7.48386 15.9416 7.48636 15.746C7.48887 15.5505 7.41487 15.3616 7.28016 15.2198L4.81078 12.75L9 12.75L9 11.25L4.81078 11.25L7.28016 8.78016C7.35273 8.71121 7.41077 8.62842 7.45085 8.53669C7.49092 8.44495 7.51223 8.34613 7.51351 8.24603C7.5148 8.14593 7.49603 8.04658 7.45831 7.95385C7.42059 7.86112 7.36469 7.77688 7.29391 7.70609C7.22312 7.63531 7.13888 7.57941 7.04615 7.54169C6.95342 7.50397 6.85407 7.4852 6.75397 7.48649C6.65387 7.48777 6.55505 7.50908 6.46331 7.54915C6.37158 7.58923 6.28879 7.64727 6.21984 7.71985L2.46984 11.4698C2.3293 11.6105 2.25035 11.8012 2.25035 12C2.25035 12.1988 2.3293 12.3895 2.46984 12.5302Z" fill="#0D5A6B"/>
</svg>
