<svg width="24" height="24" viewBox="0 0 24 24" fill="none" xmlns="http://www.w3.org/2000/svg">
<path d="M20 10H12C11.4696 10 10.9609 10.2107 10.5858 10.5858C10.2107 10.9609 10 11.4696 10 12V18C10 18.5304 10.2107 19.0391 10.5858 19.4142C10.9609 19.7893 11.4696 20 12 20H12.93C13.2592 20 13.5833 20.0812 13.8736 20.2364C14.1638 20.3917 14.4113 20.6162 14.594 20.89L15.168 21.752C15.2593 21.889 15.383 22.0013 15.5282 22.0789C15.6733 22.1566 15.8354 22.1972 16 22.1972C16.1646 22.1972 16.3267 22.1566 16.4718 22.0789C16.617 22.0013 16.7407 21.889 16.832 21.752L17.406 20.891C17.5886 20.617 17.836 20.3923 18.1263 20.2369C18.4166 20.0814 18.7407 20.0001 19.07 20H20C20.5304 20 21.0391 19.7893 21.4142 19.4142C21.7893 19.0391 22 18.5304 22 18V12C22 11.4696 21.7893 10.9609 21.4142 10.5858C21.0391 10.2107 20.5304 10 20 10Z" fill="#0D5A6B"/>
<path d="M14 7V4C14 3.46957 13.7893 2.96086 13.4142 2.58579C13.0391 2.21071 12.5304 2 12 2H4C3.46957 2 2.96086 2.21071 2.58579 2.58579C2.21071 2.96086 2 3.46957 2 4V10C2 10.5304 2.21071 11.0391 2.58579 11.4142C2.96086 11.7893 3.46957 12 4 12H4.93C5.25918 12 5.58329 12.0812 5.87357 12.2364C6.16384 12.3917 6.4113 12.6162 6.594 12.89L7 13.5" stroke="#C3E2E9" stroke-width="2" stroke-linecap="round" stroke-linejoin="round"/>
</svg>
