<svg width="24" height="24" viewBox="0 0 24 24" fill="none" xmlns="http://www.w3.org/2000/svg">
<path d="M4.78125 3.1875C4.62378 3.1875 4.47276 3.25006 4.36141 3.36141C4.25006 3.47276 4.1875 3.62378 4.1875 3.78125V7.34375C4.1875 7.50122 4.12494 7.65225 4.01359 7.76359C3.90224 7.87494 3.75122 7.9375 3.59375 7.9375C3.43628 7.9375 3.28526 7.87494 3.17391 7.76359C3.06256 7.65225 3 7.50122 3 7.34375V3.78125C3 3.30883 3.18767 2.85577 3.52172 2.52172C3.85577 2.18767 4.30883 2 4.78125 2H8.34375C8.50122 2 8.65225 2.06256 8.76359 2.17391C8.87494 2.28526 8.9375 2.43628 8.9375 2.59375C8.9375 2.75122 8.87494 2.90224 8.76359 3.01359C8.65225 3.12494 8.50122 3.1875 8.34375 3.1875H4.78125ZM16.0625 2.59375C16.0625 2.43628 16.1251 2.28526 16.2364 2.17391C16.3478 2.06256 16.4988 2 16.6562 2H20.2188C20.6912 2 21.1442 2.18767 21.4783 2.52172C21.8123 2.85577 22 3.30883 22 3.78125V7.34375C22 7.50122 21.9374 7.65225 21.8261 7.76359C21.7147 7.87494 21.5637 7.9375 21.4062 7.9375C21.2488 7.9375 21.0978 7.87494 20.9864 7.76359C20.8751 7.65225 20.8125 7.50122 20.8125 7.34375V3.78125C20.8125 3.62378 20.7499 3.47276 20.6386 3.36141C20.5272 3.25006 20.3762 3.1875 20.2188 3.1875H16.6562C16.4988 3.1875 16.3478 3.12494 16.2364 3.01359C16.1251 2.90224 16.0625 2.75122 16.0625 2.59375ZM3.59375 15.0625C3.75122 15.0625 3.90224 15.1251 4.01359 15.2364C4.12494 15.3478 4.1875 15.4988 4.1875 15.6562V19.2188C4.1875 19.3762 4.25006 19.5272 4.36141 19.6386C4.47276 19.7499 4.62378 19.8125 4.78125 19.8125H8.34375C8.50122 19.8125 8.65225 19.8751 8.76359 19.9864C8.87494 20.0978 8.9375 20.2488 8.9375 20.4062C8.9375 20.5637 8.87494 20.7147 8.76359 20.8261C8.65225 20.9374 8.50122 21 8.34375 21H4.78125C4.30883 21 3.85577 20.8123 3.52172 20.4783C3.18767 20.1442 3 19.6912 3 19.2188V15.6562C3 15.4988 3.06256 15.3478 3.17391 15.2364C3.28526 15.1251 3.43628 15.0625 3.59375 15.0625ZM21.4062 15.0625C21.5637 15.0625 21.7147 15.1251 21.8261 15.2364C21.9374 15.3478 22 15.4988 22 15.6562V19.2188C22 19.6912 21.8123 20.1442 21.4783 20.4783C21.1442 20.8123 20.6912 21 20.2188 21H16.6562C16.4988 21 16.3478 20.9374 16.2364 20.8261C16.1251 20.7147 16.0625 20.5637 16.0625 20.4062C16.0625 20.2488 16.1251 20.0978 16.2364 19.9864C16.3478 19.8751 16.4988 19.8125 16.6562 19.8125H20.2188C20.3762 19.8125 20.5272 19.7499 20.6386 19.6386C20.7499 19.5272 20.8125 19.3762 20.8125 19.2188V15.6562C20.8125 15.4988 20.8751 15.3478 20.9864 15.2364C21.0978 15.1251 21.2488 15.0625 21.4062 15.0625Z" fill="#C3E2E9"/>
<path d="M6.1875 18.25C6.1875 18.25 5 18.25 5 17.0625C5 15.875 6.1875 12.3125 12.125 12.3125C18.0625 12.3125 19.25 15.875 19.25 17.0625C19.25 18.25 18.0625 18.25 18.0625 18.25H6.1875ZM15.6875 7.5625C15.6875 8.50733 15.3122 9.41347 14.6441 10.0816C13.976 10.7497 13.0698 11.125 12.125 11.125C11.1802 11.125 10.274 10.7497 9.60593 10.0816C8.93783 9.41347 8.5625 8.50733 8.5625 7.5625C8.5625 6.61767 8.93783 5.71153 9.60593 5.04343C10.274 4.37533 11.1802 4 12.125 4C13.0698 4 13.976 4.37533 14.6441 5.04343C15.3122 5.71153 15.6875 6.61767 15.6875 7.5625Z" fill="#0D5A6B"/>
</svg>
